Coordinates
version=1
nRows=17
nColumns=36
inDegrees=yes

Units are S.I. units (second, meters, Newtons, ...)
If the header above contains a line with 'inDegrees', this indicates whether rotational values are in degrees (yes) or radians (no).

endheader
time	pelvis_tilt	pelvis_list	pelvis_rotation	pelvis_tx	pelvis_ty	pelvis_tz	hip_flexion_r	hip_adduction_r	hip_rotation_r	knee_angle_r	knee_angle_r_beta	ankle_angle_r	subtalar_angle_r	mtp_angle_r	hip_flexion_l	hip_adduction_l	hip_rotation_l	knee_angle_l	knee_angle_l_beta	ankle_angle_l	subtalar_angle_l	mtp_angle_l	lumbar_extension	lumbar_bending	lumbar_rotation	arm_flex_r	arm_add_r	arm_rot_r	elbow_flex_r	pro_sup_r	arm_flex_l	arm_add_l	arm_rot_l	elbow_flex_l	pro_sup_l
      0.00000000	      0.56968556	      0.51335706	      2.19534944	      0.33654453	      0.95025681	     -0.05143234	     -1.89799869	     -6.65830247	     -1.25546235	      7.82949650	      0.13665049	      0.16326854	    -16.55048591	     -5.22243469	      0.49142048	     -3.09741705	     -0.16105060	      8.50798764	      0.14849240	      4.10142879	    -11.62612475	     -5.22243469	    -10.31182275	     -1.40666924	     -0.63782166	     14.87151278	     -6.63704019	      1.53357698	     29.29590469	     87.95183285	     13.21490592	     -2.99076751	      1.53879173	     23.33017624	     76.52970588
      0.01694910	     -1.56112301	      0.16703723	      2.19315878	      0.33441560	      0.94609588	     -0.04637580	      0.27939602	     -5.97834439	     -0.90389228	      7.90473696	      0.13796369	      3.41085579	    -14.27638079	     -5.29709132	      3.30264922	     -3.36939523	     -0.50621398	      8.44852604	      0.14745460	      3.63518272	    -11.31905043	     -5.29709132	     -6.78626758	     -1.25708698	     -0.01357833	     14.48885090	     -6.33165903	     -1.33766181	     28.25754596	     87.24173254	     13.31194819	     -2.22350803	     -1.89234557	     22.89899008	     75.95155145
      0.03389830	     -1.77453182	      0.42690822	      1.89506670	      0.33023578	      0.94823904	     -0.04123663	      0.48451537	     -6.00857593	     -1.13801922	      7.30864459	      0.12755991	      3.91876971	    -13.85270349	     -5.45458443	      3.43050296	     -3.37079918	     -1.15298431	      7.94959702	      0.13874664	      3.57139288	    -10.38501934	     -5.45458443	     -7.16587941	     -2.15119487	      0.43252895	     14.88330859	     -5.11314691	     -5.16541934	     29.46837132	     86.37167591	     14.08099083	     -2.14174056	     -5.69378027	     23.70161891	     75.07957425
      0.05084750	     -1.45336816	      0.73607145	      2.05109363	      0.32544432	      0.95177842	     -0.04520431	      0.43313667	     -6.47825040	     -1.26749170	      7.22909260	      0.12617147	      4.06113804	    -13.79038670	     -5.48229127	      2.93791734	     -3.04533562	     -1.11422876	      7.34871611	      0.12825929	      3.06970137	    -10.62751406	     -5.48229127	     -8.17550233	     -2.72007433	      0.53753594	     15.85126152	     -5.01092621	     -5.50125792	     30.00555668	     86.29603312	     15.34638156	     -2.55829930	     -5.76064806	     23.98085183	     75.07554464
      0.06779660	     -0.90241757	      0.82550908	      2.22720290	      0.32491080	      0.95209572	     -0.04550992	     -0.12110156	     -6.62064409	     -1.53589714	      6.92234269	      0.12081767	      4.04794137	    -13.44481955	     -6.03790898	      2.24054331	     -2.94419377	     -0.86390489	      6.86863047	      0.11988022	      2.84679634	    -10.60238520	     -6.03790898	     -9.41925068	     -2.88068228	      0.91449610	     16.44463079	     -4.75119745	     -6.87836988	     31.90583992	     84.53827707	     16.78275878	     -2.53019824	     -4.85462374	     23.85899517	     73.88178100
      0.08474580	     -0.33359396	      0.87133109	      2.50715797	      0.32443040	      0.95532757	     -0.04568814	     -0.74317503	     -6.63274460	     -2.05977122	      6.67981823	      0.11658482	      3.97584584	    -13.22272240	     -6.22291708	      1.53612802	     -2.90152702	     -0.71627543	      6.45306330	      0.11262720	      2.72880058	    -10.40858844	     -6.22291708	    -10.50172967	     -2.97806421	      0.79456143	     17.84603600	     -4.78683305	     -6.86968889	     33.10334978	     82.72952854	     17.91614607	     -2.55439232	     -5.23013106	     24.17472931	     72.64652350
      0.10169490	      0.01148019	      0.88984223	      2.80605836	      0.32387808	      0.94978897	     -0.04563927	     -1.06832936	     -6.68884541	     -2.32375051	      6.76236892	      0.11802560	      4.01195045	    -13.47454384	     -6.35048129	      1.19769640	     -2.88913891	     -0.51154053	      6.40576047	      0.11180161	      2.78368154	    -10.39945492	     -6.35048129	    -11.17802362	     -2.98207811	      0.79314273	     19.29877503	     -5.24494771	     -7.02139423	     34.35284803	     81.28841577	     18.84230909	     -2.55383207	     -5.71224824	     24.62160761	     71.69893130
      0.11864410	      0.25896482	      0.98124219	      3.03969696	      0.32377378	      0.95325641	     -0.04589918	     -1.51464723	     -6.76108769	     -2.48514222	      6.51819213	      0.11376391	      3.87721391	    -13.59340697	     -6.42793853	      0.86345339	     -2.79163993	     -0.23168622	      6.17399635	      0.10775656	      2.70231380	    -10.20417754	     -6.42793853	    -11.60768058	     -3.10228530	      0.74759262	     20.40115984	     -5.51243230	     -6.87546201	     35.08558466	     80.70733203	     19.54014231	     -2.32246908	     -6.18103181	     24.60022934	     71.17242892
      0.13559320	      0.50094084	      1.14551210	      3.29775916	      0.32739390	      0.95326512	     -0.05977886	     -2.08834748	     -7.21379678	     -2.84400304	      6.38811772	      0.11149369	      3.57699431	    -13.81657734	     -6.55356604	      0.48694873	     -2.37771013	     -0.01559388	      6.00981506	      0.10489106	      2.62426301	    -10.10616554	     -6.55356604	    -11.82844711	     -2.93048096	      0.40796656	     20.94657480	     -6.20684478	     -7.04875442	     36.19486027	     79.00478469	     19.58899374	     -1.62763322	     -6.67076886	     25.50299425	     70.09798974
      0.15254240	      0.43440050	      1.33654180	      3.56537287	      0.32761777	      0.95328218	     -0.05962305	     -2.33629020	     -7.61169708	     -3.11861111	      6.22572114	      0.10865933	      3.55304404	    -13.73204301	     -6.59176917	      0.47624703	     -1.91656009	      0.36999563	      5.95742338	      0.10397665	      2.65877829	    -10.13843831	     -6.59176917	    -11.51551743	     -2.89978901	      0.09347395	     21.41398110	     -6.80475657	     -7.22782696	     36.74257534	     78.53943810	     19.60277628	     -1.14127928	     -6.66186134	     25.94169147	     69.82110994
      0.16949150	      0.74958322	      1.37041527	      3.91642763	      0.32715180	      0.95371715	     -0.05953968	     -2.92030424	     -7.81900655	     -3.55189819	      6.04409785	      0.10548941	      3.46490211	    -13.50528342	     -6.65920432	      0.09187096	     -1.69301514	      1.12207462	      5.84228578	      0.10196712	      2.30198279	    -11.01292029	     -6.65920432	    -11.80521639	     -2.77047331	     -0.37364968	     22.50764082	     -7.13003260	     -8.12133167	     36.66250791	     79.02492818	     19.80186163	     -0.69340330	     -6.58598063	     26.01090904	     70.33963955
      0.18644070	      0.93903489	      1.38600518	      4.12399832	      0.32693117	      0.95401071	     -0.05926664	     -3.36164056	     -7.89610180	     -3.60467570	      5.74544007	      0.10027685	      3.19494997	    -13.53114439	     -6.73416832	     -0.21747139	     -1.58350528	      1.41127415	      5.66199300	      0.09882042	      2.31958097	    -10.93522216	     -6.73416832	    -11.96913516	     -2.71610670	     -0.60511634	     23.22161099	     -7.39780462	     -8.33395515	     37.62405817	     78.07764658	     20.00741756	     -0.41414637	     -6.33348718	     26.64822993	     69.82814556
      0.20338980	      0.95841629	      1.37258843	      4.30470853	      0.32690607	      0.95108248	     -0.05944734	     -3.56872457	     -7.86478587	     -3.75196376	      5.63829689	      0.09840684	      3.15959826	    -13.68173428	     -6.79473921	     -0.31077046	     -1.54984515	      1.65408306	      5.51097038	      0.09618458	      2.34928157	    -10.89088482	     -6.79473921	    -11.92300149	     -2.70988023	     -0.77355929	     24.24045690	     -7.60097620	     -8.45972829	     38.28344357	     77.52497309	     20.22565945	     -0.31134602	     -5.88265370	     26.99258184	     69.62767077
      0.22033900	      0.85916182	      1.32238557	      4.37007676	      0.32710482	      0.95141080	     -0.05937814	     -3.53888701	     -7.81860175	     -3.91369302	      5.64887146	      0.09859141	      3.37780248	    -13.64601677	     -6.87053393	     -0.22079980	     -1.54560495	      2.10727935	      5.46581283	      0.09539643	      2.14194155	    -11.52580014	     -6.87053393	    -11.67413784	     -2.67328720	     -0.84848203	     25.25086245	     -7.68853617	     -8.02752295	     38.36784886	     79.40127694	     20.60378147	     -0.40039879	     -3.95117480	     26.57644054	     71.24344076
      0.23728810	      0.85701895	      1.31210300	      4.43911191	      0.33108673	      0.95444946	     -0.06383065	     -3.70904789	     -7.83746880	     -3.94531492	      5.64252868	      0.09848070	      3.40394856	    -13.66414758	     -6.87100566	     -0.27027304	     -1.52829161	      2.12624498	      5.48057639	      0.09565410	      2.11980212	    -11.50958892	     -6.87100566	    -11.35505609	     -2.74688254	     -0.83483832	     25.64969700	     -7.72586395	     -8.04207811	     38.53111519	     79.40986012	     20.67997397	     -0.22848081	     -3.91863382	     26.61805996	     71.25361836
      0.25423730	      0.97794645	      1.26089296	      4.60809889	      0.33097195	      0.95158640	     -0.06374504	     -4.26909155	     -7.79583402	     -4.37699777	      5.06555176	      0.08841056	      3.37826452	    -13.54285794	     -6.91641152	     -0.46021310	     -1.52684935	      2.37675072	      5.38292314	      0.09394973	      2.19068734	    -11.34561772	     -6.91641152	    -11.36290295	     -2.42165059	     -1.23982012	     26.44584653	     -7.75490785	     -8.09259942	     39.58596143	     78.74842225	     20.58177611	     -0.07887348	     -3.78007152	     26.89999635	     70.83518402
      0.27118640	      1.09611781	      1.19454839	      4.67107186	      0.33080672	      0.95192728	     -0.06371371	     -4.69639723	     -7.72909091	     -4.73085489	      4.66451977	      0.08141123	      3.35933272	    -13.35272911	     -6.98022464	     -0.73824539	     -1.55896965	      2.64813768	      5.09745039	      0.08896729	      2.16853761	    -11.25718665	     -6.98022464	    -11.26867112	     -2.26648452	     -1.42553570	     27.27427939	     -7.77535044	     -8.06944737	     40.11385377	     77.86554543	     20.70311875	      0.03829963	     -3.56045185	     26.93496361	     70.28614946
